<svg width="24" height="24" viewBox="0 0 24 24" fill="none" xmlns="http://www.w3.org/2000/svg">
<g clip-path="url(#clip0_2002_58)">
<path d="M12.0284 12C12.0284 9.79086 13.8193 8 16.0284 8C18.2375 8 20.0284 9.79091 20.0284 12C20.0284 14.2092 18.2375 16 16.0284 16C13.8192 16 12.0284 14.2091 12.0284 12Z" fill="#00BCFF"/>
<path d="M4.0296 20C4.0296 17.7909 5.82046 16 8.02959 16L10.1612 14.8746L12.0296 16V20C12.0296 22.2091 10.2387 24 8.02959 24C5.82046 24 4.0296 22.2091 4.0296 20Z" fill="#00CF7F"/>
<path d="M12.0287 0L9.85211 3.78141L12.0287 7.99997H15.9726C18.1817 7.99997 19.9726 6.20911 19.9726 3.99998C19.9726 1.79086 18.1817 0 15.9726 0H12.0287Z" fill="#FF7361"/>
<path d="M3.97266 3.99998C3.97266 6.20911 5.76352 7.99997 7.97264 7.99997L10.0945 8.81953L12.0287 7.99997V0H7.97259C5.76352 0 3.97266 1.79086 3.97266 3.99998Z" fill="#FF4D12"/>
<path d="M4.0296 12C4.0296 14.2091 5.82046 16 8.02959 16H12.0296V7.99994H8.02959C5.82046 7.99994 4.0296 9.79085 4.0296 12Z" fill="#B659FF"/>
</g>
<defs>
<clipPath id="clip0_2002_58">
<rect width="16.0561" height="24" fill="white" transform="translate(3.97266)"/>
</clipPath>
</defs>
</svg>
