<svg width="14" height="16" viewBox="0 0 14 16" fill="none" xmlns="http://www.w3.org/2000/svg">
<path d="M7.19701 6.00969C6.78666 5.96916 6.37381 6.05646 6.01499 6.25963C5.65617 6.46281 5.36893 6.77192 5.19258 7.14465C5.01623 7.51739 4.95939 7.93552 5.02986 8.3418C5.10033 8.74808 5.29465 9.12265 5.58623 9.41422C5.8778 9.70579 6.25237 9.90011 6.65865 9.97058C7.06493 10.0411 7.48306 9.98422 7.85579 9.80787C8.22853 9.63152 8.53764 9.34427 8.74081 8.98545C8.94398 8.62663 9.03128 8.21379 8.99076 7.80344C8.94455 7.34343 8.74073 6.91354 8.41381 6.58663C8.0869 6.25972 7.65702 6.05589 7.19701 6.00969ZM7.19701 6.00969V6.00969ZM12.0126 8C12.0114 8.21739 11.9954 8.43445 11.9648 8.64969L13.3776 9.75781C13.4392 9.80881 13.4806 9.87996 13.4946 9.95863C13.5086 10.0373 13.4943 10.1184 13.4542 10.1875L12.1176 12.5C12.077 12.5684 12.0136 12.6204 11.9385 12.6466C11.8634 12.6728 11.7814 12.6717 11.707 12.6434L10.3039 12.0784C10.2265 12.0476 10.1427 12.0365 10.06 12.046C9.97722 12.0556 9.89815 12.0855 9.82982 12.1331C9.61568 12.2806 9.39066 12.4116 9.15669 12.525C9.08314 12.5607 9.01952 12.6141 8.97145 12.6802C8.92338 12.7464 8.89234 12.8234 8.88107 12.9044L8.67076 14.4009C8.65694 14.48 8.61611 14.5518 8.55524 14.604C8.49436 14.6563 8.41722 14.6858 8.33701 14.6875H5.66388C5.58499 14.6861 5.50891 14.6579 5.44819 14.6076C5.38747 14.5572 5.34572 14.4876 5.32982 14.4103L5.11982 12.9159C5.10803 12.834 5.07618 12.7563 5.02711 12.6897C4.97805 12.6231 4.91328 12.5696 4.83857 12.5341C4.60489 12.4213 4.38063 12.2899 4.16794 12.1412C4.09985 12.0939 4.02104 12.0642 3.9386 12.0549C3.85617 12.0455 3.77272 12.0568 3.69576 12.0878L2.29294 12.6525C2.2186 12.6808 2.13666 12.682 2.06154 12.6558C1.98642 12.6296 1.92296 12.5778 1.88232 12.5094L0.545757 10.1969C0.505573 10.1278 0.491214 10.0467 0.505234 9.96799C0.519255 9.8893 0.560745 9.81815 0.622319 9.76719L1.81638 8.82969C1.8818 8.77776 1.93321 8.71031 1.96596 8.63348C1.9987 8.55664 2.01174 8.47284 2.00388 8.38969C1.99263 8.25938 1.98576 8.12938 1.98576 7.99906C1.98576 7.86875 1.99232 7.74062 2.00388 7.61312C2.01088 7.53048 1.9972 7.44739 1.96409 7.37134C1.93097 7.2953 1.87946 7.22868 1.81419 7.1775L0.620757 6.24C0.560182 6.18878 0.519565 6.11787 0.506024 6.03971C0.492483 5.96155 0.50688 5.88111 0.546694 5.8125L1.88326 3.5C1.92385 3.43156 1.98729 3.37964 2.06241 3.3534C2.13753 3.32716 2.21951 3.32828 2.29388 3.35656L3.69701 3.92156C3.77438 3.95237 3.85819 3.9635 3.94093 3.95396C4.02366 3.94441 4.10274 3.91449 4.17107 3.86687C4.38521 3.71941 4.61023 3.58841 4.84419 3.475C4.91775 3.43925 4.98137 3.38594 5.02944 3.31977C5.07751 3.25361 5.10855 3.17663 5.11982 3.09562L5.33013 1.59906C5.34395 1.52003 5.38478 1.44824 5.44565 1.39597C5.50653 1.3437 5.58366 1.3142 5.66388 1.3125H8.33701C8.4159 1.31386 8.49198 1.34206 8.5527 1.39245C8.61342 1.44283 8.65517 1.5124 8.67107 1.58969L8.88107 3.08406C8.89286 3.16596 8.92471 3.24367 8.97377 3.31029C9.02284 3.37691 9.08761 3.43038 9.16232 3.46594C9.396 3.57874 9.62026 3.71009 9.83294 3.85875C9.90104 3.90613 9.97985 3.93582 10.0623 3.94515C10.1447 3.95448 10.2282 3.94315 10.3051 3.91219L11.7079 3.3475C11.7823 3.31919 11.8642 3.31802 11.9393 3.34421C12.0145 3.37039 12.0779 3.42224 12.1186 3.49062L13.4551 5.80312C13.4953 5.87221 13.5097 5.95332 13.4957 6.03201C13.4816 6.1107 13.4401 6.18185 13.3786 6.23281L12.1845 7.17031C12.1188 7.22207 12.0671 7.28944 12.0341 7.36629C12.001 7.44314 11.9878 7.52702 11.9954 7.61031C12.0058 7.73969 12.0126 7.86969 12.0126 8Z" stroke="#4B5563" stroke-linejoin="round"/>
</svg>
