<svg width="28" height="28" viewBox="0 0 28 28" fill="none" xmlns="http://www.w3.org/2000/svg">
<rect x="0.5" y="0.5" width="27" height="27" rx="5.5" fill="white"/>
<rect x="0.5" y="0.5" width="27" height="27" rx="5.5" stroke="#D1D5DB"/>
<path d="M13.6307 18.1193C13.1307 18.1193 12.6804 18.0199 12.2798 17.821C11.8793 17.6222 11.5582 17.3494 11.3168 17.0028C11.0753 16.6562 10.9432 16.2614 10.9205 15.8182H11.9432C11.983 16.2131 12.1619 16.5398 12.4801 16.7983C12.8011 17.054 13.1847 17.1818 13.6307 17.1818C13.9886 17.1818 14.3068 17.098 14.5852 16.9304C14.8665 16.7628 15.0866 16.5327 15.2457 16.2401C15.4077 15.9446 15.4886 15.6108 15.4886 15.2386C15.4886 14.858 15.4048 14.5185 15.2372 14.2202C15.0724 13.919 14.8452 13.6818 14.5554 13.5085C14.2656 13.3352 13.9347 13.2472 13.5625 13.2443C13.2955 13.2415 13.0213 13.2827 12.7401 13.3679C12.4588 13.4503 12.2273 13.5568 12.0455 13.6875L11.0568 13.5682L11.5852 9.27273H16.1193V10.2102H12.4716L12.1648 12.7841H12.2159C12.3949 12.642 12.6193 12.5241 12.8892 12.4304C13.1591 12.3366 13.4403 12.2898 13.733 12.2898C14.267 12.2898 14.7429 12.4176 15.1605 12.6733C15.581 12.9261 15.9105 13.2727 16.1491 13.7131C16.3906 14.1534 16.5114 14.6562 16.5114 15.2216C16.5114 15.7784 16.3864 16.2756 16.1364 16.7131C15.8892 17.1477 15.5483 17.4915 15.1136 17.7443C14.679 17.9943 14.1847 18.1193 13.6307 18.1193Z" fill="#4B5563"/>
</svg>
