<svg width="112" height="16" viewBox="0 0 112 16" fill="none" xmlns="http://www.w3.org/2000/svg">
<g clip-path="url(#clip0_1_1128)">
<path d="M11.7064 13.9999C11.5998 14.0004 11.4946 13.9752 11.3997 13.9266L7.99972 12.1466L4.59972 13.9266C4.48932 13.9847 4.36484 14.0106 4.24044 14.0014C4.11604 13.9922 3.9967 13.9484 3.89601 13.8747C3.79531 13.8011 3.71728 13.7007 3.6708 13.585C3.62431 13.4692 3.61124 13.3428 3.63305 13.2199L4.29972 9.46661L1.55305 6.79994C1.46736 6.71443 1.40657 6.60719 1.3772 6.48974C1.34784 6.37229 1.35102 6.24906 1.38639 6.13328C1.42503 6.01479 1.4961 5.90951 1.59155 5.82938C1.687 5.74925 1.803 5.69748 1.92639 5.67994L5.72639 5.12661L7.39972 1.70661C7.45431 1.5939 7.53954 1.49884 7.64566 1.43233C7.75178 1.36581 7.87448 1.33054 7.99972 1.33054C8.12496 1.33054 8.24766 1.36581 8.35378 1.43233C8.45989 1.49884 8.54513 1.5939 8.59972 1.70661L10.2931 5.11994L14.0931 5.67328C14.2164 5.69081 14.3324 5.74259 14.4279 5.82272C14.5233 5.90285 14.5944 6.00813 14.6331 6.12661C14.6684 6.24239 14.6716 6.36562 14.6422 6.48307C14.6129 6.60052 14.5521 6.70776 14.4664 6.79328L11.7197 9.45994L12.3864 13.2133C12.4102 13.3383 12.3977 13.4674 12.3505 13.5856C12.3032 13.7037 12.2232 13.8059 12.1197 13.8799C11.999 13.9645 11.8536 14.0067 11.7064 13.9999Z" fill="#1E293B"/>
</g>
<g clip-path="url(#clip1_1_1128)">
<path d="M35.7064 13.9999C35.5998 14.0004 35.4946 13.9752 35.3997 13.9266L31.9997 12.1466L28.5997 13.9266C28.4893 13.9847 28.3648 14.0106 28.2404 14.0014C28.116 13.9922 27.9967 13.9484 27.896 13.8747C27.7953 13.8011 27.7173 13.7007 27.6708 13.585C27.6243 13.4692 27.6112 13.3428 27.6331 13.2199L28.2997 9.46661L25.5531 6.79994C25.4674 6.71443 25.4066 6.60719 25.3772 6.48974C25.3478 6.37229 25.351 6.24906 25.3864 6.13328C25.425 6.01479 25.4961 5.90951 25.5916 5.82938C25.687 5.74925 25.803 5.69748 25.9264 5.67994L29.7264 5.12661L31.3997 1.70661C31.4543 1.5939 31.5395 1.49884 31.6457 1.43233C31.7518 1.36581 31.8745 1.33054 31.9997 1.33054C32.125 1.33054 32.2477 1.36581 32.3538 1.43233C32.4599 1.49884 32.5451 1.5939 32.5997 1.70661L34.2931 5.11994L38.0931 5.67328C38.2164 5.69081 38.3324 5.74259 38.4279 5.82272C38.5233 5.90285 38.5944 6.00813 38.6331 6.12661C38.6684 6.24239 38.6716 6.36562 38.6422 6.48307C38.6129 6.60052 38.5521 6.70776 38.4664 6.79328L35.7197 9.45994L36.3864 13.2133C36.4102 13.3383 36.3977 13.4674 36.3505 13.5856C36.3032 13.7037 36.2232 13.8059 36.1197 13.8799C35.999 13.9645 35.8536 14.0067 35.7064 13.9999Z" fill="#1E293B"/>
</g>
<g clip-path="url(#clip2_1_1128)">
<rect width="16" height="16" transform="translate(48 -0.00012207)" fill="white"/>
<path d="M59.7294 13.5004L59.7169 13.4998L59.7044 13.4998C59.6782 13.4999 59.6524 13.4939 59.629 13.4822L56.2316 11.7035L55.9997 11.5821L55.7678 11.7035L52.3678 13.4835L52.367 13.4839C52.3394 13.4985 52.3083 13.5049 52.2772 13.5026C52.2461 13.5004 52.2163 13.4894 52.1911 13.471C52.1659 13.4526 52.1464 13.4275 52.1348 13.3985C52.1232 13.3696 52.1199 13.338 52.1253 13.3073L52.1253 13.3073L52.792 9.55393L52.8384 9.29262L52.648 9.10775L49.9046 6.44428C49.8841 6.42317 49.8694 6.39697 49.8623 6.36835C49.8553 6.34051 49.8557 6.31136 49.8633 6.28374C49.8732 6.25593 49.8904 6.23123 49.913 6.21221L49.5928 5.83073L49.913 6.21221C49.9369 6.19217 49.9659 6.17923 49.9967 6.17485L49.9984 6.1746L53.7984 5.62127L54.0595 5.58325L54.1755 5.34623L55.8488 1.92623L55.8488 1.92624L55.8497 1.92443C55.8634 1.89625 55.8847 1.87249 55.9112 1.85586C55.9377 1.83923 55.9684 1.83041 55.9997 1.83041C56.031 1.83041 56.0617 1.83923 56.0882 1.85586L56.3538 1.4322L56.0882 1.85586C56.1148 1.87249 56.1361 1.89625 56.1497 1.92443L56.1497 1.92444L56.1518 1.92869L57.8451 5.34203L57.9616 5.57683L58.221 5.6146L62.021 6.16794L62.0227 6.16818C62.0535 6.17256 62.0825 6.18551 62.1064 6.20554C62.1291 6.22457 62.1462 6.24926 62.1562 6.27707C62.1638 6.30469 62.1641 6.33383 62.1572 6.36168C62.15 6.3903 62.1354 6.41649 62.1148 6.4376L59.3714 9.10108L59.181 9.28595L59.2274 9.54726L59.8941 13.3006L59.8941 13.3006L59.8952 13.3067C59.9012 13.3379 59.898 13.3702 59.8862 13.3998C59.8747 13.4285 59.8555 13.4534 59.8306 13.4718C59.8009 13.492 59.7654 13.502 59.7294 13.5004Z" stroke="#1E293B"/>
</g>
<path d="M83.7294 13.5005L83.7169 13.4999L83.7044 13.4999C83.6782 13.5001 83.6524 13.494 83.629 13.4823L80.2316 11.7036L79.9997 11.5822L79.7678 11.7036L76.3678 13.4836L76.367 13.4841C76.3394 13.4986 76.3083 13.5051 76.2772 13.5028C76.2461 13.5005 76.2163 13.4895 76.1911 13.4711C76.1659 13.4527 76.1464 13.4276 76.1348 13.3987C76.1232 13.3697 76.1199 13.3381 76.1253 13.3074L76.1253 13.3074L76.792 9.55405L76.8384 9.29274L76.648 9.10787L73.9046 6.4444C73.8841 6.4233 73.8694 6.3971 73.8623 6.36847C73.8553 6.34063 73.8557 6.31148 73.8633 6.28386C73.8732 6.25605 73.8904 6.23135 73.913 6.21233L73.5928 5.83085L73.913 6.21233C73.9369 6.1923 73.9659 6.17935 73.9967 6.17497L73.9984 6.17473L77.7984 5.62139L78.0595 5.58337L78.1755 5.34636L79.8488 1.92636L79.8488 1.92636L79.8497 1.92455C79.8634 1.89637 79.8847 1.87261 79.9112 1.85598C79.9377 1.83935 79.9684 1.83054 79.9997 1.83054C80.031 1.83054 80.0617 1.83936 80.0882 1.85598L80.3538 1.43233L80.0882 1.85598C80.1148 1.87261 80.1361 1.89637 80.1497 1.92456L80.1497 1.92457L80.1518 1.92882L81.8451 5.34215L81.9616 5.57696L82.221 5.61473L86.021 6.16806L86.0227 6.1683C86.0535 6.17269 86.0825 6.18563 86.1064 6.20566C86.1291 6.22469 86.1462 6.24938 86.1562 6.27719C86.1638 6.30481 86.1641 6.33396 86.1572 6.3618C86.15 6.39042 86.1354 6.41662 86.1148 6.43772L83.3714 9.1012L83.181 9.28608L83.2274 9.54739L83.8941 13.3007L83.8941 13.3007L83.8952 13.3068C83.9012 13.3381 83.898 13.3704 83.8862 13.3999C83.8747 13.4286 83.8555 13.4536 83.8306 13.472C83.8009 13.4921 83.7654 13.5021 83.7294 13.5005Z" stroke="#1E293B"/>
<g clip-path="url(#clip3_1_1128)">
<rect width="16" height="16" transform="translate(96)" fill="white"/>
<path d="M107.729 13.5005L107.717 13.4999L107.704 13.4999C107.678 13.5001 107.652 13.494 107.629 13.4823L104.232 11.7036L104 11.5822L103.768 11.7036L100.368 13.4836L100.367 13.4841C100.339 13.4986 100.308 13.5051 100.277 13.5028C100.246 13.5005 100.216 13.4895 100.191 13.4711C100.166 13.4527 100.146 13.4276 100.135 13.3987C100.123 13.3697 100.12 13.3381 100.125 13.3074L100.125 13.3074L100.792 9.55405L100.838 9.29274L100.648 9.10787L97.9046 6.4444C97.8841 6.4233 97.8694 6.3971 97.8623 6.36847C97.8553 6.34063 97.8557 6.31148 97.8633 6.28386C97.8732 6.25605 97.8904 6.23135 97.913 6.21233L97.5928 5.83085L97.913 6.21233C97.9369 6.1923 97.9659 6.17935 97.9967 6.17497L97.9984 6.17473L101.798 5.62139L102.06 5.58337L102.176 5.34636L103.849 1.92636L103.849 1.92636L103.85 1.92455C103.863 1.89637 103.885 1.87261 103.911 1.85598C103.938 1.83935 103.968 1.83054 104 1.83054C104.031 1.83054 104.062 1.83936 104.088 1.85598L104.354 1.43233L104.088 1.85598C104.115 1.87261 104.136 1.89637 104.15 1.92456L104.15 1.92457L104.152 1.92882L105.845 5.34215L105.962 5.57696L106.221 5.61473L110.021 6.16806L110.023 6.1683C110.054 6.17269 110.083 6.18563 110.106 6.20566C110.129 6.22469 110.146 6.24938 110.156 6.27719C110.164 6.30481 110.164 6.33396 110.157 6.3618C110.15 6.39042 110.135 6.41662 110.115 6.43772L107.371 9.1012L107.181 9.28608L107.227 9.54739L107.894 13.3007L107.894 13.3007L107.895 13.3068C107.901 13.3381 107.898 13.3704 107.886 13.3999C107.875 13.4286 107.855 13.4536 107.831 13.472C107.801 13.4921 107.765 13.5021 107.729 13.5005Z" stroke="#1E293B"/>
</g>
<defs>
<clipPath id="clip0_1_1128">
<rect width="16" height="16" fill="white"/>
</clipPath>
<clipPath id="clip1_1_1128">
<rect width="16" height="16" fill="white" transform="translate(24)"/>
</clipPath>
<clipPath id="clip2_1_1128">
<rect width="16" height="16" fill="white" transform="translate(48 -0.00012207)"/>
</clipPath>
<clipPath id="clip3_1_1128">
<rect width="16" height="16" fill="white" transform="translate(96)"/>
</clipPath>
</defs>
</svg>
