<svg width="112" height="16" viewBox="0 0 112 16" fill="none" xmlns="http://www.w3.org/2000/svg">
<g clip-path="url(#clip0_1_1192)">
<path d="M11.7064 13.9996C11.5998 14 11.4946 13.9748 11.3997 13.9262L7.99972 12.1462L4.59972 13.9262C4.48932 13.9843 4.36484 14.0102 4.24044 14.001C4.11604 13.9919 3.9967 13.948 3.89601 13.8744C3.79531 13.8007 3.71728 13.7004 3.6708 13.5846C3.62431 13.4689 3.61124 13.3424 3.63305 13.2196L4.29972 9.46623L1.55305 6.79956C1.46736 6.71405 1.40657 6.60681 1.3772 6.48936C1.34784 6.37191 1.35102 6.24868 1.38639 6.1329C1.42503 6.01441 1.4961 5.90913 1.59155 5.829C1.687 5.74887 1.803 5.6971 1.92639 5.67956L5.72639 5.12623L7.39972 1.70623C7.45431 1.59351 7.53954 1.49846 7.64566 1.43194C7.75178 1.36543 7.87448 1.33015 7.99972 1.33015C8.12496 1.33015 8.24766 1.36543 8.35378 1.43194C8.45989 1.49846 8.54513 1.59351 8.59972 1.70623L10.2931 5.11956L14.0931 5.6729C14.2164 5.69043 14.3324 5.7422 14.4279 5.82233C14.5233 5.90246 14.5944 6.00775 14.6331 6.12623C14.6684 6.24201 14.6716 6.36524 14.6422 6.48269C14.6129 6.60014 14.5521 6.70738 14.4664 6.7929L11.7197 9.45956L12.3864 13.2129C12.4102 13.3379 12.3977 13.4671 12.3505 13.5852C12.3032 13.7033 12.2232 13.8055 12.1197 13.8796C11.999 13.9642 11.8536 14.0064 11.7064 13.9996Z" fill="#1E293B"/>
</g>
<g clip-path="url(#clip1_1_1192)">
<path d="M35.7064 13.9996C35.5998 14 35.4946 13.9748 35.3997 13.9262L31.9997 12.1462L28.5997 13.9262C28.4893 13.9843 28.3648 14.0102 28.2404 14.001C28.116 13.9919 27.9967 13.948 27.896 13.8744C27.7953 13.8007 27.7173 13.7004 27.6708 13.5846C27.6243 13.4689 27.6112 13.3424 27.6331 13.2196L28.2997 9.46623L25.5531 6.79956C25.4674 6.71405 25.4066 6.60681 25.3772 6.48936C25.3478 6.37191 25.351 6.24868 25.3864 6.1329C25.425 6.01441 25.4961 5.90913 25.5916 5.829C25.687 5.74887 25.803 5.6971 25.9264 5.67956L29.7264 5.12623L31.3997 1.70623C31.4543 1.59351 31.5395 1.49846 31.6457 1.43194C31.7518 1.36543 31.8745 1.33015 31.9997 1.33015C32.125 1.33015 32.2477 1.36543 32.3538 1.43194C32.4599 1.49846 32.5451 1.59351 32.5997 1.70623L34.2931 5.11956L38.0931 5.6729C38.2164 5.69043 38.3324 5.7422 38.4279 5.82233C38.5233 5.90246 38.5944 6.00774 38.6331 6.12623C38.6684 6.24201 38.6716 6.36524 38.6422 6.48269C38.6129 6.60014 38.5521 6.70738 38.4664 6.7929L35.7197 9.45956L36.3864 13.2129C36.4102 13.3379 36.3977 13.4671 36.3505 13.5852C36.3032 13.7033 36.2232 13.8055 36.1197 13.8796C35.999 13.9642 35.8536 14.0064 35.7064 13.9996Z" fill="#1E293B"/>
</g>
<g clip-path="url(#clip2_1_1192)">
<path d="M59.7064 13.9996C59.5998 14 59.4946 13.9748 59.3997 13.9262L55.9997 12.1462L52.5997 13.9262C52.4893 13.9843 52.3648 14.0102 52.2404 14.001C52.116 13.9919 51.9967 13.948 51.896 13.8744C51.7953 13.8007 51.7173 13.7004 51.6708 13.5846C51.6243 13.4689 51.6112 13.3424 51.6331 13.2196L52.2997 9.46623L49.5531 6.79956C49.4674 6.71405 49.4066 6.60681 49.3772 6.48936C49.3478 6.37191 49.351 6.24868 49.3864 6.1329C49.425 6.01441 49.4961 5.90913 49.5916 5.829C49.687 5.74887 49.803 5.6971 49.9264 5.67956L53.7264 5.12623L55.3997 1.70623C55.4543 1.59351 55.5395 1.49846 55.6457 1.43194C55.7518 1.36543 55.8745 1.33015 55.9997 1.33015C56.125 1.33015 56.2477 1.36543 56.3538 1.43194C56.4599 1.49846 56.5451 1.59351 56.5997 1.70623L58.2931 5.11956L62.0931 5.6729C62.2164 5.69043 62.3324 5.7422 62.4279 5.82233C62.5233 5.90246 62.5944 6.00774 62.6331 6.12623C62.6684 6.24201 62.6716 6.36524 62.6422 6.48269C62.6129 6.60014 62.5521 6.70738 62.4664 6.7929L59.7197 9.45956L60.3864 13.2129C60.4102 13.3379 60.3977 13.4671 60.3505 13.5852C60.3032 13.7033 60.2232 13.8055 60.1197 13.8796C59.999 13.9642 59.8536 14.0064 59.7064 13.9996Z" fill="#1E293B"/>
</g>
<g clip-path="url(#clip3_1_1192)">
<path d="M83.7064 13.9996C83.5998 14 83.4946 13.9748 83.3997 13.9262L79.9997 12.1462L76.5997 13.9262C76.4893 13.9843 76.3648 14.0102 76.2404 14.001C76.116 13.9919 75.9967 13.948 75.896 13.8744C75.7953 13.8007 75.7173 13.7004 75.6708 13.5846C75.6243 13.4689 75.6112 13.3424 75.6331 13.2196L76.2997 9.46623L73.5531 6.79956C73.4674 6.71405 73.4066 6.60681 73.3772 6.48936C73.3478 6.37191 73.351 6.24868 73.3864 6.1329C73.425 6.01441 73.4961 5.90913 73.5916 5.829C73.687 5.74887 73.803 5.6971 73.9264 5.67956L77.7264 5.12623L79.3997 1.70623C79.4543 1.59351 79.5395 1.49846 79.6457 1.43194C79.7518 1.36543 79.8745 1.33015 79.9997 1.33015C80.125 1.33015 80.2477 1.36543 80.3538 1.43194C80.4599 1.49846 80.5451 1.59351 80.5997 1.70623L82.2931 5.11956L86.0931 5.6729C86.2164 5.69043 86.3324 5.7422 86.4279 5.82233C86.5233 5.90246 86.5944 6.00774 86.6331 6.12623C86.6684 6.24201 86.6716 6.36524 86.6422 6.48269C86.6129 6.60014 86.5521 6.70738 86.4664 6.7929L83.7197 9.45956L84.3864 13.2129C84.4102 13.3379 84.3977 13.4671 84.3505 13.5852C84.3032 13.7033 84.2232 13.8055 84.1197 13.8796C83.999 13.9642 83.8536 14.0064 83.7064 13.9996Z" fill="#1E293B"/>
</g>
<g clip-path="url(#clip4_1_1192)">
<path d="M107.706 13.9996C107.6 14 107.495 13.9748 107.4 13.9262L104 12.1462L100.6 13.9262C100.489 13.9843 100.365 14.0102 100.24 14.001C100.116 13.9919 99.9967 13.948 99.896 13.8744C99.7953 13.8007 99.7173 13.7004 99.6708 13.5846C99.6243 13.4689 99.6112 13.3424 99.6331 13.2196L100.3 9.46623L97.5531 6.79956C97.4674 6.71405 97.4066 6.60681 97.3772 6.48936C97.3478 6.37191 97.351 6.24868 97.3864 6.1329C97.425 6.01441 97.4961 5.90913 97.5916 5.829C97.687 5.74887 97.803 5.6971 97.9264 5.67956L101.726 5.12623L103.4 1.70623C103.454 1.59351 103.54 1.49846 103.646 1.43194C103.752 1.36543 103.874 1.33015 104 1.33015C104.125 1.33015 104.248 1.36543 104.354 1.43194C104.46 1.49846 104.545 1.59351 104.6 1.70623L106.293 5.11956L110.093 5.6729C110.216 5.69043 110.332 5.7422 110.428 5.82233C110.523 5.90246 110.594 6.00774 110.633 6.12623C110.668 6.24201 110.672 6.36524 110.642 6.48269C110.613 6.60014 110.552 6.70738 110.466 6.7929L107.72 9.45956L108.386 13.2129C108.41 13.3379 108.398 13.4671 108.35 13.5852C108.303 13.7033 108.223 13.8055 108.12 13.8796C107.999 13.9642 107.854 14.0064 107.706 13.9996Z" fill="#1E293B"/>
</g>
<defs>
<clipPath id="clip0_1_1192">
<rect width="16" height="16" fill="white" transform="translate(0 -0.000366211)"/>
</clipPath>
<clipPath id="clip1_1_1192">
<rect width="16" height="16" fill="white" transform="translate(24 -0.000366211)"/>
</clipPath>
<clipPath id="clip2_1_1192">
<rect width="16" height="16" fill="white" transform="translate(48 -0.000366211)"/>
</clipPath>
<clipPath id="clip3_1_1192">
<rect width="16" height="16" fill="white" transform="translate(72 -0.000366211)"/>
</clipPath>
<clipPath id="clip4_1_1192">
<rect width="16" height="16" fill="white" transform="translate(96 -0.000366211)"/>
</clipPath>
</defs>
</svg>
