<svg width="112" height="16" viewBox="0 0 112 16" fill="none" xmlns="http://www.w3.org/2000/svg">
<g clip-path="url(#clip0_1_1226)">
<path d="M11.7064 13.9998C11.5998 14.0002 11.4946 13.9751 11.3997 13.9265L7.99972 12.1465L4.59972 13.9265C4.48932 13.9845 4.36484 14.0104 4.24044 14.0013C4.11604 13.9921 3.9967 13.9482 3.89601 13.8746C3.79531 13.801 3.71728 13.7006 3.6708 13.5848C3.62431 13.4691 3.61124 13.3426 3.63305 13.2198L4.29972 9.46647L1.55305 6.79981C1.46736 6.71429 1.40657 6.60705 1.3772 6.4896C1.34784 6.37215 1.35102 6.24892 1.38639 6.13314C1.42503 6.01466 1.4961 5.90938 1.59155 5.82925C1.687 5.74911 1.803 5.69734 1.92639 5.67981L5.72639 5.12647L7.39972 1.70647C7.45431 1.59376 7.53954 1.4987 7.64566 1.43219C7.75178 1.36568 7.87448 1.3304 7.99972 1.3304C8.12496 1.3304 8.24766 1.36568 8.35378 1.43219C8.45989 1.4987 8.54513 1.59376 8.59972 1.70647L10.2931 5.11981L14.0931 5.67314C14.2164 5.69068 14.3324 5.74245 14.4279 5.82258C14.5233 5.90271 14.5944 6.00799 14.6331 6.12647C14.6684 6.24226 14.6716 6.36549 14.6422 6.48294C14.6129 6.60039 14.5521 6.70762 14.4664 6.79314L11.7197 9.45981L12.3864 13.2131C12.4102 13.3381 12.3977 13.4673 12.3505 13.5854C12.3032 13.7036 12.2232 13.8057 12.1197 13.8798C11.999 13.9644 11.8536 14.0066 11.7064 13.9998Z" fill="#1E293B"/>
</g>
<g clip-path="url(#clip1_1_1226)">
<path d="M35.7064 13.9998C35.5998 14.0002 35.4946 13.9751 35.3997 13.9265L31.9997 12.1465L28.5997 13.9265C28.4893 13.9845 28.3648 14.0104 28.2404 14.0013C28.116 13.9921 27.9967 13.9482 27.896 13.8746C27.7953 13.801 27.7173 13.7006 27.6708 13.5848C27.6243 13.4691 27.6112 13.3426 27.6331 13.2198L28.2997 9.46647L25.5531 6.79981C25.4674 6.71429 25.4066 6.60705 25.3772 6.4896C25.3478 6.37215 25.351 6.24892 25.3864 6.13314C25.425 6.01466 25.4961 5.90938 25.5916 5.82925C25.687 5.74911 25.803 5.69734 25.9264 5.67981L29.7264 5.12647L31.3997 1.70647C31.4543 1.59376 31.5395 1.4987 31.6457 1.43219C31.7518 1.36568 31.8745 1.3304 31.9997 1.3304C32.125 1.3304 32.2477 1.36568 32.3538 1.43219C32.4599 1.4987 32.5451 1.59376 32.5997 1.70647L34.2931 5.11981L38.0931 5.67314C38.2164 5.69068 38.3324 5.74245 38.4279 5.82258C38.5233 5.90271 38.5944 6.00799 38.6331 6.12647C38.6684 6.24226 38.6716 6.36549 38.6422 6.48294C38.6129 6.60039 38.5521 6.70762 38.4664 6.79314L35.7197 9.45981L36.3864 13.2131C36.4102 13.3381 36.3977 13.4673 36.3505 13.5854C36.3032 13.7036 36.2232 13.8057 36.1197 13.8798C35.999 13.9644 35.8536 14.0066 35.7064 13.9998Z" fill="#1E293B"/>
</g>
<g clip-path="url(#clip2_1_1226)">
<path d="M59.7064 13.9998C59.5998 14.0002 59.4946 13.9751 59.3997 13.9265L55.9997 12.1465L52.5997 13.9265C52.4893 13.9845 52.3648 14.0104 52.2404 14.0013C52.116 13.9921 51.9967 13.9482 51.896 13.8746C51.7953 13.801 51.7173 13.7006 51.6708 13.5848C51.6243 13.4691 51.6112 13.3426 51.6331 13.2198L52.2997 9.46647L49.5531 6.79981C49.4674 6.71429 49.4066 6.60705 49.3772 6.4896C49.3478 6.37215 49.351 6.24892 49.3864 6.13314C49.425 6.01466 49.4961 5.90938 49.5916 5.82925C49.687 5.74911 49.803 5.69734 49.9264 5.67981L53.7264 5.12647L55.3997 1.70647C55.4543 1.59376 55.5395 1.4987 55.6457 1.43219C55.7518 1.36568 55.8745 1.3304 55.9997 1.3304C56.125 1.3304 56.2477 1.36568 56.3538 1.43219C56.4599 1.4987 56.5451 1.59376 56.5997 1.70647L58.2931 5.11981L62.0931 5.67314C62.2164 5.69068 62.3324 5.74245 62.4279 5.82258C62.5233 5.90271 62.5944 6.00799 62.6331 6.12647C62.6684 6.24226 62.6716 6.36549 62.6422 6.48294C62.6129 6.60039 62.5521 6.70762 62.4664 6.79314L59.7197 9.45981L60.3864 13.2131C60.4102 13.3381 60.3977 13.4673 60.3505 13.5854C60.3032 13.7036 60.2232 13.8057 60.1197 13.8798C59.999 13.9644 59.8536 14.0066 59.7064 13.9998Z" fill="#1E293B"/>
</g>
<g clip-path="url(#clip3_1_1226)">
<path d="M83.7064 13.9998C83.5998 14.0002 83.4946 13.9751 83.3997 13.9265L79.9997 12.1465L76.5997 13.9265C76.4893 13.9845 76.3648 14.0104 76.2404 14.0013C76.116 13.9921 75.9967 13.9482 75.896 13.8746C75.7953 13.801 75.7173 13.7006 75.6708 13.5848C75.6243 13.4691 75.6112 13.3426 75.6331 13.2198L76.2997 9.46647L73.5531 6.79981C73.4674 6.71429 73.4066 6.60705 73.3772 6.4896C73.3478 6.37215 73.351 6.24892 73.3864 6.13314C73.425 6.01466 73.4961 5.90938 73.5916 5.82925C73.687 5.74911 73.803 5.69734 73.9264 5.67981L77.7264 5.12647L79.3997 1.70647C79.4543 1.59376 79.5395 1.4987 79.6457 1.43219C79.7518 1.36568 79.8745 1.3304 79.9997 1.3304C80.125 1.3304 80.2477 1.36568 80.3538 1.43219C80.4599 1.4987 80.5451 1.59376 80.5997 1.70647L82.2931 5.11981L86.0931 5.67314C86.2164 5.69068 86.3324 5.74245 86.4279 5.82258C86.5233 5.90271 86.5944 6.00799 86.6331 6.12647C86.6684 6.24226 86.6716 6.36549 86.6422 6.48294C86.6129 6.60039 86.5521 6.70762 86.4664 6.79314L83.7197 9.45981L84.3864 13.2131C84.4102 13.3381 84.3977 13.4673 84.3505 13.5854C84.3032 13.7036 84.2232 13.8057 84.1197 13.8798C83.999 13.9644 83.8536 14.0066 83.7064 13.9998Z" fill="#1E293B"/>
</g>
<g clip-path="url(#clip4_1_1226)">
<rect width="16" height="16" transform="translate(96 -0.00012207)" fill="white"/>
<path d="M107.729 13.5003L107.717 13.4998L107.704 13.4998C107.678 13.4999 107.652 13.4939 107.629 13.4821L104.232 11.7035L104 11.5821L103.768 11.7035L100.368 13.4835L100.367 13.4839C100.339 13.4984 100.308 13.5049 100.277 13.5026C100.246 13.5003 100.216 13.4894 100.191 13.471C100.166 13.4526 100.146 13.4275 100.135 13.3985C100.123 13.3696 100.12 13.338 100.125 13.3073L100.125 13.3072L100.792 9.55392L100.838 9.29261L100.648 9.10773L97.9046 6.44426C97.8841 6.42316 97.8694 6.39696 97.8623 6.36833C97.8553 6.34049 97.8557 6.31135 97.8633 6.28372C97.8732 6.25591 97.8904 6.23122 97.913 6.21219L97.5928 5.83072L97.913 6.21219C97.9369 6.19216 97.9659 6.17922 97.9967 6.17483L97.9984 6.17459L101.798 5.62125L102.06 5.58323L102.176 5.34622L103.849 1.92622L103.849 1.92622L103.85 1.92442C103.863 1.89624 103.885 1.87247 103.911 1.85585C103.938 1.83922 103.968 1.8304 104 1.8304C104.031 1.8304 104.062 1.83922 104.088 1.85585L104.354 1.43219L104.088 1.85585C104.115 1.87247 104.136 1.89624 104.15 1.92442L104.15 1.92443L104.152 1.92868L105.845 5.34201L105.962 5.57682L106.221 5.61459L110.021 6.16792L110.023 6.16816C110.054 6.17255 110.083 6.18549 110.106 6.20552C110.129 6.22455 110.146 6.24924 110.156 6.27705C110.164 6.30467 110.164 6.33382 110.157 6.36167C110.15 6.39029 110.135 6.41648 110.115 6.43758L107.371 9.10107L107.181 9.28594L107.227 9.54725L107.894 13.3006L107.894 13.3006L107.895 13.3067C107.901 13.3379 107.898 13.3702 107.886 13.3997C107.875 13.4285 107.855 13.4534 107.831 13.4718C107.801 13.492 107.765 13.502 107.729 13.5003Z" stroke="#1E293B"/>
</g>
<defs>
<clipPath id="clip0_1_1226">
<rect width="16" height="16" fill="white"/>
</clipPath>
<clipPath id="clip1_1_1226">
<rect width="16" height="16" fill="white" transform="translate(24 -0.00012207)"/>
</clipPath>
<clipPath id="clip2_1_1226">
<rect width="16" height="16" fill="white" transform="translate(48 -0.00012207)"/>
</clipPath>
<clipPath id="clip3_1_1226">
<rect width="16" height="16" fill="white" transform="translate(72 -0.00012207)"/>
</clipPath>
<clipPath id="clip4_1_1226">
<rect width="16" height="16" fill="white" transform="translate(96 -0.00012207)"/>
</clipPath>
</defs>
</svg>
