<svg width="112" height="16" viewBox="0 0 112 16" fill="none" xmlns="http://www.w3.org/2000/svg">
<g clip-path="url(#clip0_1_1328)">
<path d="M11.7064 13.9999C11.5998 14.0004 11.4946 13.9752 11.3997 13.9266L7.99972 12.1466L4.59972 13.9266C4.48932 13.9847 4.36484 14.0106 4.24044 14.0014C4.11604 13.9922 3.9967 13.9483 3.89601 13.8747C3.79531 13.8011 3.71728 13.7007 3.6708 13.585C3.62431 13.4692 3.61124 13.3427 3.63305 13.2199L4.29972 9.4666L1.55305 6.79993C1.46736 6.71441 1.40657 6.60717 1.3772 6.48972C1.34784 6.37227 1.35102 6.24904 1.38639 6.13326C1.42503 6.01478 1.4961 5.9095 1.59155 5.82937C1.687 5.74924 1.803 5.69747 1.92639 5.67993L5.72639 5.12659L7.39972 1.70659C7.45431 1.59388 7.53954 1.49882 7.64566 1.43231C7.75178 1.3658 7.87448 1.33052 7.99972 1.33052C8.12496 1.33052 8.24766 1.3658 8.35378 1.43231C8.45989 1.49882 8.54513 1.59388 8.59972 1.70659L10.2931 5.11993L14.0931 5.67326C14.2164 5.6908 14.3324 5.74257 14.4279 5.8227C14.5233 5.90283 14.5944 6.00811 14.6331 6.1266C14.6684 6.24238 14.6716 6.36561 14.6422 6.48306C14.6129 6.60051 14.5521 6.70775 14.4664 6.79326L11.7197 9.45993L12.3864 13.2133C12.4102 13.3382 12.3977 13.4674 12.3505 13.5856C12.3032 13.7037 12.2232 13.8058 12.1197 13.8799C11.999 13.9645 11.8536 14.0067 11.7064 13.9999Z" fill="#1E293B"/>
</g>
<g clip-path="url(#clip1_1_1328)">
<rect width="16" height="16" transform="translate(24 -0.00012207)" fill="white"/>
<path d="M35.7294 13.5003L35.7169 13.4998L35.7044 13.4998C35.6782 13.4999 35.6524 13.4939 35.629 13.4821L32.2316 11.7035L31.9997 11.5821L31.7678 11.7035L28.3678 13.4835L28.367 13.4839C28.3394 13.4984 28.3083 13.5049 28.2772 13.5026C28.2461 13.5003 28.2163 13.4894 28.1911 13.471C28.1659 13.4526 28.1464 13.4275 28.1348 13.3985C28.1232 13.3696 28.1199 13.338 28.1253 13.3073L28.1253 13.3072L28.792 9.55392L28.8384 9.29261L28.648 9.10773L25.9046 6.44426C25.8841 6.42316 25.8694 6.39696 25.8623 6.36833C25.8553 6.34049 25.8557 6.31135 25.8633 6.28372C25.8732 6.25591 25.8904 6.23122 25.913 6.21219L25.5928 5.83072L25.913 6.21219C25.9369 6.19216 25.9659 6.17922 25.9967 6.17483L25.9984 6.17459L29.7984 5.62125L30.0595 5.58323L30.1755 5.34622L31.8488 1.92622L31.8488 1.92622L31.8497 1.92442C31.8634 1.89624 31.8847 1.87247 31.9112 1.85585C31.9377 1.83922 31.9684 1.8304 31.9997 1.8304C32.031 1.8304 32.0617 1.83922 32.0882 1.85585L32.3538 1.43219L32.0882 1.85585C32.1148 1.87247 32.1361 1.89624 32.1497 1.92442L32.1497 1.92443L32.1518 1.92868L33.8451 5.34201L33.9616 5.57682L34.221 5.61459L38.021 6.16792L38.0227 6.16816C38.0535 6.17255 38.0825 6.18549 38.1064 6.20552C38.1291 6.22455 38.1462 6.24924 38.1562 6.27705C38.1638 6.30467 38.1641 6.33382 38.1572 6.36167C38.15 6.39029 38.1354 6.41648 38.1148 6.43758L35.3714 9.10107L35.181 9.28594L35.2274 9.54725L35.8941 13.3006L35.8941 13.3006L35.8952 13.3067C35.9012 13.3379 35.898 13.3702 35.8862 13.3997C35.8747 13.4285 35.8555 13.4534 35.8306 13.4718C35.8009 13.492 35.7654 13.502 35.7294 13.5003Z" stroke="#1E293B"/>
</g>
<g clip-path="url(#clip2_1_1328)">
<rect width="16" height="16" transform="translate(48 -0.00012207)" fill="white"/>
<path d="M59.7294 13.5003L59.7169 13.4998L59.7044 13.4998C59.6782 13.4999 59.6524 13.4939 59.629 13.4821L56.2316 11.7035L55.9997 11.5821L55.7678 11.7035L52.3678 13.4835L52.367 13.4839C52.3394 13.4984 52.3083 13.5049 52.2772 13.5026C52.2461 13.5003 52.2163 13.4894 52.1911 13.471C52.1659 13.4526 52.1464 13.4275 52.1348 13.3985C52.1232 13.3696 52.1199 13.338 52.1253 13.3073L52.1253 13.3072L52.792 9.55392L52.8384 9.29261L52.648 9.10773L49.9046 6.44426C49.8841 6.42316 49.8694 6.39696 49.8623 6.36833C49.8553 6.34049 49.8557 6.31135 49.8633 6.28372C49.8732 6.25591 49.8904 6.23122 49.913 6.21219L49.5928 5.83072L49.913 6.21219C49.9369 6.19216 49.9659 6.17922 49.9967 6.17483L49.9984 6.17459L53.7984 5.62125L54.0595 5.58323L54.1755 5.34622L55.8488 1.92622L55.8488 1.92622L55.8497 1.92442C55.8634 1.89624 55.8847 1.87247 55.9112 1.85585C55.9377 1.83922 55.9684 1.8304 55.9997 1.8304C56.031 1.8304 56.0617 1.83922 56.0882 1.85585L56.3538 1.43219L56.0882 1.85585C56.1148 1.87247 56.1361 1.89624 56.1497 1.92442L56.1497 1.92443L56.1518 1.92868L57.8451 5.34201L57.9616 5.57682L58.221 5.61459L62.021 6.16792L62.0227 6.16816C62.0535 6.17255 62.0825 6.18549 62.1064 6.20552C62.1291 6.22455 62.1462 6.24924 62.1562 6.27705C62.1638 6.30467 62.1641 6.33382 62.1572 6.36167C62.15 6.39029 62.1354 6.41648 62.1148 6.43758L59.3714 9.10107L59.181 9.28594L59.2274 9.54725L59.8941 13.3006L59.8941 13.3006L59.8952 13.3067C59.9012 13.3379 59.898 13.3702 59.8862 13.3997C59.8747 13.4285 59.8555 13.4534 59.8306 13.4718C59.8009 13.492 59.7654 13.502 59.7294 13.5003Z" stroke="#1E293B"/>
</g>
<path d="M83.7294 13.5005L83.7169 13.4999L83.7044 13.4999C83.6782 13.5 83.6524 13.494 83.629 13.4823L80.2316 11.7036L79.9997 11.5822L79.7678 11.7036L76.3678 13.4836L76.367 13.4841C76.3394 13.4986 76.3083 13.505 76.2772 13.5028C76.2461 13.5005 76.2163 13.4895 76.1911 13.4711C76.1659 13.4527 76.1464 13.4276 76.1348 13.3986C76.1232 13.3697 76.1199 13.3381 76.1253 13.3074L76.1253 13.3074L76.792 9.55404L76.8384 9.29273L76.648 9.10786L73.9046 6.44439C73.8841 6.42328 73.8694 6.39708 73.8623 6.36846C73.8553 6.34061 73.8557 6.31147 73.8633 6.28385C73.8732 6.25604 73.8904 6.23134 73.913 6.21231L73.5928 5.83084L73.913 6.21231C73.9369 6.19228 73.9659 6.17934 73.9967 6.17496L73.9984 6.17471L77.7984 5.62138L78.0595 5.58336L78.1755 5.34634L79.8488 1.92634L79.8488 1.92634L79.8497 1.92454C79.8634 1.89636 79.8847 1.8726 79.9112 1.85597C79.9377 1.83934 79.9684 1.83052 79.9997 1.83052C80.031 1.83052 80.0617 1.83934 80.0882 1.85597L80.3538 1.43231L80.0882 1.85597C80.1148 1.8726 80.1361 1.89636 80.1497 1.92454L80.1497 1.92455L80.1518 1.9288L81.8451 5.34213L81.9616 5.57694L82.221 5.61471L86.021 6.16805L86.0227 6.16829C86.0535 6.17267 86.0825 6.18561 86.1064 6.20565C86.1291 6.22467 86.1462 6.24937 86.1562 6.27717C86.1638 6.30479 86.1641 6.33394 86.1572 6.36179C86.15 6.39041 86.1354 6.4166 86.1148 6.4377L83.3714 9.10119L83.181 9.28606L83.2274 9.54737L83.8941 13.3007L83.8941 13.3007L83.8952 13.3068C83.9012 13.338 83.898 13.3703 83.8862 13.3999C83.8747 13.4286 83.8555 13.4536 83.8306 13.4719C83.8009 13.4921 83.7654 13.5021 83.7294 13.5005Z" stroke="#1E293B"/>
<g clip-path="url(#clip3_1_1328)">
<rect width="16" height="16" transform="translate(96)" fill="white"/>
<path d="M107.729 13.5005L107.717 13.4999L107.704 13.4999C107.678 13.5 107.652 13.494 107.629 13.4823L104.232 11.7036L104 11.5822L103.768 11.7036L100.368 13.4836L100.367 13.4841C100.339 13.4986 100.308 13.505 100.277 13.5028C100.246 13.5005 100.216 13.4895 100.191 13.4711C100.166 13.4527 100.146 13.4276 100.135 13.3986C100.123 13.3697 100.12 13.3381 100.125 13.3074L100.125 13.3074L100.792 9.55404L100.838 9.29273L100.648 9.10786L97.9046 6.44439C97.8841 6.42328 97.8694 6.39708 97.8623 6.36846C97.8553 6.34061 97.8557 6.31147 97.8633 6.28385C97.8732 6.25604 97.8904 6.23134 97.913 6.21231L97.5928 5.83084L97.913 6.21231C97.9369 6.19228 97.9659 6.17934 97.9967 6.17496L97.9984 6.17471L101.798 5.62138L102.06 5.58336L102.176 5.34634L103.849 1.92634L103.849 1.92634L103.85 1.92454C103.863 1.89636 103.885 1.8726 103.911 1.85597C103.938 1.83934 103.968 1.83052 104 1.83052C104.031 1.83052 104.062 1.83934 104.088 1.85597L104.354 1.43231L104.088 1.85597C104.115 1.8726 104.136 1.89636 104.15 1.92454L104.15 1.92455L104.152 1.9288L105.845 5.34213L105.962 5.57694L106.221 5.61471L110.021 6.16805L110.023 6.16829C110.054 6.17267 110.083 6.18561 110.106 6.20565C110.129 6.22467 110.146 6.24937 110.156 6.27717C110.164 6.30479 110.164 6.33394 110.157 6.36179C110.15 6.39041 110.135 6.4166 110.115 6.4377L107.371 9.10119L107.181 9.28606L107.227 9.54737L107.894 13.3007L107.894 13.3007L107.895 13.3068C107.901 13.338 107.898 13.3703 107.886 13.3999C107.875 13.4286 107.855 13.4536 107.831 13.4719C107.801 13.4921 107.765 13.5021 107.729 13.5005Z" stroke="#1E293B"/>
</g>
<defs>
<clipPath id="clip0_1_1328">
<rect width="16" height="16" fill="white"/>
</clipPath>
<clipPath id="clip1_1_1328">
<rect width="16" height="16" fill="white" transform="translate(24 -0.00012207)"/>
</clipPath>
<clipPath id="clip2_1_1328">
<rect width="16" height="16" fill="white" transform="translate(48 -0.00012207)"/>
</clipPath>
<clipPath id="clip3_1_1328">
<rect width="16" height="16" fill="white" transform="translate(96)"/>
</clipPath>
</defs>
</svg>
